<svg xmlns="http://www.w3.org/2000/svg" xmlns:xlink="http://www.w3.org/1999/xlink" aria-hidden="true" role="img" class="iconify iconify--logos" width="35.93" height="32" preserveAspectRatio="xMidYMid meet" viewBox="0 0 256 228"><path fill="#00D8FF" d="M210.483 73.824a171.49 171.49 0 0 0-8.24-2.597c.465-1.9.893-3.777 1.273-5.621c9.253-45.424-41.877-81.452-87.302-72.2c-45.425 9.253-71.15 55.771-61.898 101.196a96.489 96.489 0 0 0 1.734 7.525a171.66 171.66 0 0 0-6.79-.255c-43.537.828-78.667 36.556-77.84 80.093c.828 43.536 36.557 78.666 80.093 77.84c43.536-.827 78.666-36.556 77.84-80.094a96.49 96.49 0 0 0-1.734-7.525a171.66 171.66 0 0 0 6.79.255c43.536-.828 78.666-36.556 77.84-80.093c-.827-43.536-36.556-78.666-80.093-77.84ZM53.261 188.333c-16.52.316-29.813-12.62-30.127-29.14c-.315-16.52 12.62-29.813 29.14-30.127c16.52-.315 29.813 12.62 30.127 29.14c.314 16.52-12.62 29.813-29.14 30.127Zm147.082-30.127c.315 16.52-12.62 29.813-29.14 30.127c-16.52.316-29.813-12.62-30.127-29.14c-.314-16.52 12.62-29.813 29.14-30.127c16.52-.315 29.813 12.62 30.127 29.14Z"/><circle cx="168.411" cy="144.696" r="16.52" fill="#00D8FF"/><circle cx="129.428" cy="167.31" r="7.772" fill="#00D8FF"/><circle cx="142.447" cy="185.084" r="7.772" fill="#00D8FF"/><circle cx="156.466" cy="167.31" r="7.772" fill="#00D8FF"/><circle cx="87.553" cy="144.696" r="16.52" fill="#00D8FF"/><circle cx="168.411" cy="111.063" r="7.772" fill="#00D8FF"/><circle cx="155.392" cy="93.289" r="7.772" fill="#00D8FF"/><circle cx="142.447" cy="111.063" r="7.772" fill="#00D8FF"/><circle cx="87.553" cy="111.063" r="7.772" fill="#00D8FF"/><circle cx="100.572" cy="128.837" r="7.772" fill="#00D8FF"/><circle cx="114.591" cy="111.063" r="7.772" fill="#00D8FF"/><circle cx="128.61" cy="128.837" r="7.772" fill="#00D8FF"/><circle cx="142.447" cy="128.837" r="7.772" fill="#00D8FF"/></svg>